<svg width="162" height="160" viewBox="0 0 162 160" fill="none" xmlns="http://www.w3.org/2000/svg">
<path fill-rule="evenodd" clip-rule="evenodd" d="M131.712 100.356C135.804 100.689 159.302 103.253 161.606 104.245L161.798 105.013C158.774 105.632 120.539 106.667 120.539 106.667L75.6775 105.26C75.6775 105.26 52.9267 106.201 41.6537 105.435C31.2029 104.863 9.34182 104.283 0 102.663C21.0877 100.042 53.3891 80.6829 53.3891 80.6829L97.6779 41.5185L125.748 41.5185L133.933 41.3483L131.712 100.356ZM118.279 63.6206L112.695 62.6204L94.216 82.8482C94.216 82.8482 79.9595 92.6271 69.7851 99.0616L76.4927 98.7423C89.9393 98.3561 103.875 99.0062 117.352 99.4306C117.608 92.1254 118.279 63.6206 118.279 63.6206Z" fill="#004F9F"/>
</svg>
