<svg width="161" height="160" viewBox="0 0 161 160" fill="none" xmlns="http://www.w3.org/2000/svg">
<path fill-rule="evenodd" clip-rule="evenodd" d="M150.255 20.2986L152.507 22.5016L131.34 38.8783L122.713 55.4682L112.402 48.6453C105.67 50.3561 100.48 49.8025 93.7294 50.2116C89.1315 50.4904 83.7687 51.3649 79.167 52.0528L79.1914 66.6397L95.5838 60.4438L102.344 65.9491C102.234 70.6155 102.047 85.1664 102.047 85.1664L102.804 85.6187L105.705 84.762L107.536 86.9763C107.536 86.9763 97.758 93.9521 95.5934 95.5117L131.321 82.666L139.511 95.4856L112.251 111.382L74.8706 124.791C63.653 126.78 52.4238 128.703 41.1835 130.559C37.862 127.07 34.4848 123.168 31.2523 119.556L41.8086 114.922L41.2916 110.003L45.9995 105.502C36.8717 90.0518 34.1724 88.8423 33.0945 71.4771L40.4511 65.643C45.3214 66.6736 51.1259 67.5364 56.0928 68.3965L44.7214 52.6025L48.6333 44.2523L42.5139 41.911L39.5897 34.2332C40.9319 32.3766 42.5708 30.4062 44.0074 28.5957C46.9087 27.563 49.3454 26.7044 52.3195 25.9152L54.0126 29.6689L57.0149 31.9404L57.3134 33.4329L58.8059 34.0299L58.6002 38.467L61.1277 39.3236C61.1277 39.3236 104.567 37.7595 114.825 41.9154C114.825 41.9154 136.961 29.2615 150.255 20.2986ZM69.4294 89.5211C63.4043 88.1972 57.6327 86.6353 51.6743 85.0386C53.1568 88.7621 58.9622 101.8 58.2437 104.99L56.7982 106.741L51.8252 112.223C64.0542 107.564 76.9079 102.24 89.106 97.7956C89.0105 95.2511 88.8749 80.6614 87.7695 79.3715L69.4294 89.5211Z" fill="#004F9F"/>
<path d="M110.889 129.059C116.56 126.893 122.248 124.779 127.958 122.716L141.949 129.879L154.052 127.762L157.612 133.632L142.101 136.787L126.742 130.934L108.36 137.59L92.8597 132.852L71.6719 138.508L65.1321 136.862C45.9903 131.636 49.4094 133.04 30.0125 137.187L17.8773 133.02L4.11931 135.762C3.35408 134.521 2.51284 132.887 1.79102 131.584L17.5299 125.468L31.8469 130.046L50.2236 124.069L71.5362 130.753C79.3839 128.457 88.4094 125.304 96.2735 122.748C99.4267 123.716 107.508 127.547 110.889 129.059Z" fill="#004F9F"/>
</svg>
